<?xml version="1.0" encoding="UTF-8"?>
<svg width="112px" height="103px" viewBox="0 0 112 103" version="1.1" xmlns="http://www.w3.org/2000/svg" xmlns:xlink="http://www.w3.org/1999/xlink">
    <!-- Generator: Sketch 62 (91390) - https://sketch.com -->
    <title>github</title>
    <desc>Created with Sketch.</desc>
    <defs>
        <polygon id="path-1" points="0.0377358491 0 111.037736 0 111.037736 103 0.0377358491 103"></polygon>
        <path d="M0,48.6930341 C0,70.2015402 13.9852698,88.4490985 33.3854491,94.8902923 C35.8277021,95.3356463 36.7177011,93.8322029 36.7177011,92.5409752 C36.7177011,91.3872394 36.6757483,88.3235625 36.6517753,84.2615753 C23.074047,87.2027051 20.2092693,77.7337018 20.2092693,77.7337018 C17.9887668,72.1084922 14.7883665,70.6140157 14.7883665,70.6140157 C10.3563515,67.5921842 15.123989,67.6519632 15.123989,67.6519632 C20.0234782,67.9986818 22.6005796,72.6704154 22.6005796,72.6704154 C26.9546822,80.1099195 34.0237312,77.9608623 36.8076,76.7174578 C37.2511012,73.5700903 38.5096855,71.424022 39.9061149,70.2075181 C29.067306,68.9790584 17.6711241,64.800502 17.6711241,46.1434571 C17.6711241,40.8290986 19.5739838,36.4831609 22.6964717,33.0787433 C22.193038,31.8472947 20.5179221,26.8975885 23.1729358,20.1933668 C23.1729358,20.1933668 27.272325,18.8842053 36.5978359,25.1849184 C40.4904576,24.1029174 44.6677591,23.5649058 48.818091,23.5439831 C52.9624295,23.5649058 57.1397311,24.1029174 61.038346,25.1849184 C70.3578637,18.8842053 74.448263,20.1933668 74.448263,20.1933668 C77.1122666,26.8975885 75.4371507,31.8472947 74.9337169,33.0787433 C78.0621981,36.4831609 79.9530713,40.8290986 79.9530713,46.1434571 C79.9530713,64.8483253 68.5389096,68.9641136 57.6641412,70.1686617 C59.4171695,71.6721051 60.9784134,74.6431244 60.9784134,79.186333 C60.9784134,85.6932838 60.9184808,90.9448743 60.9184808,92.5409752 C60.9184808,93.8441588 61.7964933,95.359558 64.2747059,94.8843144 C83.6539088,88.4311648 97.6301887,70.1955623 97.6301887,48.6930341 C97.6301887,21.7984346 75.7727732,0 48.8120977,0 C21.8574155,0 0,21.7984346 0,48.6930341 Z" id="path-3"></path>
        <filter x="-8.2%" y="-12.6%" width="132.8%" height="133.7%" filterUnits="objectBoundingBox" id="filter-4">
            <feOffset dx="8" dy="4" in="SourceAlpha" result="shadowOffsetOuter1"></feOffset>
            <feGaussianBlur stdDeviation="4" in="shadowOffsetOuter1" result="shadowBlurOuter1"></feGaussianBlur>
            <feColorMatrix values="0 0 0 0 0.99   0 0 0 0 0.64   0 0 0 0 0.07  0 0 0 1 0" type="matrix" in="shadowBlurOuter1"></feColorMatrix>
        </filter>
    </defs>
    <g id="Page-1" stroke="none" stroke-width="1" fill="none" fill-rule="evenodd">
        <g id="card" transform="translate(-531.000000, -452.000000)">
            <g id="content" transform="translate(286.000000, 253.000000)">
                <g id="icon" transform="translate(245.000000, 182.000000)">
                    <g id="github" transform="translate(0.000000, 17.000000)">
                        <mask id="mask-2" fill="white">
                            <use xlink:href="#path-1"></use>
                        </mask>
                        <g id="path-1"></g>
                        <g id="Fill-1" fill-rule="nonzero" mask="url(#mask-2)">
                            <use fill="black" fill-opacity="1" filter="url(#filter-4)" xlink:href="#path-3"></use>
                            <use fill="#2C2C2C" xlink:href="#path-3"></use>
                        </g>
                    </g>
                </g>
            </g>
        </g>
    </g>
</svg>
