<?xml version="1.0" encoding="UTF-8"?>
<svg width="104px" height="92px" viewBox="0 0 104 92" version="1.1" xmlns="http://www.w3.org/2000/svg" xmlns:xlink="http://www.w3.org/1999/xlink">
    <!-- Generator: Sketch 62 (91390) - https://sketch.com -->
    <title>github</title>
    <desc>Created with Sketch.</desc>
    <defs>
        <polygon id="path-1" points="0 0 103.04 0 103.04 91.52 0 91.52"></polygon>
        <path d="M47.0371123,0 C21.0626004,0 0,21.0057642 0,46.9223783 C0,67.6487569 13.4767145,85.2327677 32.1714328,91.4397362 C34.5248766,91.8688956 35.382512,90.4201228 35.382512,89.1758489 C35.382512,88.064067 35.3420847,85.1117966 35.3189834,81.197518 C22.2349908,84.0316976 19.4743867,74.9070218 19.4743867,74.9070218 C17.3346298,69.4863652 14.2506077,68.0462333 14.2506077,68.0462333 C9.97975691,65.1342866 14.5740258,65.1918918 14.5740258,65.1918918 C19.2953517,65.5260024 21.7787403,70.0278548 21.7787403,70.0278548 C25.974512,77.1968315 32.7865046,75.1259218 35.4691418,73.9277321 C35.8965157,70.8948142 37.1093333,68.8267848 38.4549834,67.6545174 C28.0103131,66.470729 17.0285378,62.4441201 17.0285378,44.4655132 C17.0285378,39.3444041 18.8622026,35.1565005 21.8711455,31.87588 C21.3860184,30.6892113 19.7718158,25.9194943 22.3302836,19.4590625 C22.3302836,19.4590625 26.2806041,18.197507 35.2670055,24.2691031 C39.0180773,23.2264476 43.043477,22.7080001 47.0428877,22.6878383 C51.036523,22.7080001 55.0619227,23.2264476 58.8187698,24.2691031 C67.7993959,18.197507 71.7410534,19.4590625 71.7410534,19.4590625 C74.3081842,25.9194943 72.6939816,30.6892113 72.2088545,31.87588 C75.2235727,35.1565005 77.0456869,39.3444041 77.0456869,44.4655132 C77.0456869,62.4902043 66.0465856,66.4563277 55.5672634,67.617074 C57.2565451,69.0658467 58.7610166,71.928829 58.7610166,76.30683 C58.7610166,82.5771644 58.7032634,87.637788 58.7032634,89.1758489 C58.7032634,90.4316439 59.5493481,91.8919377 61.9374438,91.4339757 C80.6119484,85.2154861 94.08,67.6429964 94.08,46.9223783 C94.08,21.0057642 73.0173996,0 47.0371123,0" id="path-3"></path>
        <filter x="-8.5%" y="-13.1%" width="134.0%" height="135.0%" filterUnits="objectBoundingBox" id="filter-4">
            <feOffset dx="8" dy="4" in="SourceAlpha" result="shadowOffsetOuter1"></feOffset>
            <feGaussianBlur stdDeviation="4" in="shadowOffsetOuter1" result="shadowBlurOuter1"></feGaussianBlur>
            <feColorMatrix values="0 0 0 0 0.988235294   0 0 0 0 0.639215686   0 0 0 0 0.0666666667  0 0 0 1 0" type="matrix" in="shadowBlurOuter1"></feColorMatrix>
        </filter>
    </defs>
    <g id="Page-1" stroke="none" stroke-width="1" fill="none" fill-rule="evenodd">
        <g id="card" transform="translate(-531.000000, -452.000000)">
            <g id="content" transform="translate(286.000000, 253.000000)">
                <g id="icon" transform="translate(245.000000, 182.000000)">
                    <g id="github" transform="translate(0.000000, 17.000000)">
                        <mask id="mask-2" fill="white">
                            <use xlink:href="#path-1"></use>
                        </mask>
                        <g id="path-1"></g>
                        <g id="Fill-1" fill-rule="nonzero" mask="url(#mask-2)">
                            <use fill="black" fill-opacity="1" filter="url(#filter-4)" xlink:href="#path-3"></use>
                            <use fill="#2C2C2C" xlink:href="#path-3"></use>
                        </g>
                    </g>
                </g>
            </g>
        </g>
    </g>
</svg>